<?xml version="1.0" encoding="UTF-8" standalone="no"?>
<!-- Created with Inkscape (http://www.inkscape.org/) -->

<svg
   width="24.535984mm"
   height="5.8611426mm"
   viewBox="0 0 24.535984 5.8611426"
   version="1.1"
   id="svg1"
   inkscape:version="1.3 (0e150ed6c4, 2023-07-21)"
   sodipodi:docname="logo_variant.svg"
   inkscape:export-filename="logo_variant.png"
   inkscape:export-xdpi="1000"
   inkscape:export-ydpi="1000"
   xmlns:inkscape="http://www.inkscape.org/namespaces/inkscape"
   xmlns:sodipodi="http://sodipodi.sourceforge.net/DTD/sodipodi-0.dtd"
   xmlns="http://www.w3.org/2000/svg"
   xmlns:svg="http://www.w3.org/2000/svg">
  <sodipodi:namedview
     id="namedview1"
     pagecolor="#ffffff"
     bordercolor="#000000"
     borderopacity="0.25"
     inkscape:showpageshadow="2"
     inkscape:pageopacity="0.0"
     inkscape:pagecheckerboard="0"
     inkscape:deskcolor="#d1d1d1"
     inkscape:document-units="mm"
     inkscape:zoom="5.8511223"
     inkscape:cx="38.368707"
     inkscape:cy="38.881429"
     inkscape:window-width="1920"
     inkscape:window-height="1017"
     inkscape:window-x="-8"
     inkscape:window-y="-8"
     inkscape:window-maximized="1"
     inkscape:current-layer="layer1" />
  <defs
     id="defs1" />
  <g
     inkscape:label="Слой 1"
     inkscape:groupmode="layer"
     id="layer1"
     transform="translate(-100.54166,-40.745832)">
    <text
       xml:space="preserve"
       style="font-style:normal;font-variant:normal;font-weight:normal;font-stretch:normal;font-size:4.5861px;font-family:Bahnschrift;-inkscape-font-specification:'Bahnschrift, Normal';font-variant-ligatures:normal;font-variant-caps:normal;font-variant-numeric:normal;font-variant-east-asian:normal;text-align:center;text-anchor:middle;fill:#3d5e5e;fill-opacity:1;stroke-width:0.396875"
       x="111.53747"
       y="44.035374"
       id="text3-6-5"><tspan
         sodipodi:role="line"
         id="tspan3-5-4"
         style="font-style:normal;font-variant:normal;font-weight:normal;font-stretch:normal;font-size:4.5861px;font-family:Bahnschrift;-inkscape-font-specification:'Bahnschrift, Normal';font-variant-ligatures:normal;font-variant-caps:normal;font-variant-numeric:normal;font-variant-east-asian:normal;fill:#3d5e5e;fill-opacity:1;stroke-width:0.396875"
         x="111.53747"
         y="44.035374">VOTE</tspan></text>
    <text
       xml:space="preserve"
       style="font-style:normal;font-variant:normal;font-weight:normal;font-stretch:normal;font-size:6.84127px;font-family:Bahnschrift;-inkscape-font-specification:'Bahnschrift, @wght=700,wdth=85.0';font-variant-ligatures:normal;font-variant-caps:normal;font-variant-numeric:normal;font-variant-east-asian:normal;font-variation-settings:'wdth' 85, 'wght' 700;text-align:center;text-anchor:middle;fill:#000000;stroke-width:0.592034"
       x="120.01574"
       y="45.639423"
       id="text4-5-2"><tspan
         sodipodi:role="line"
         id="tspan4-8-5"
         style="font-style:normal;font-variant:normal;font-weight:normal;font-stretch:normal;font-size:6.84127px;font-family:Bahnschrift;-inkscape-font-specification:'Bahnschrift, @wght=700,wdth=85.0';font-variant-ligatures:normal;font-variant-caps:normal;font-variant-numeric:normal;font-variant-east-asian:normal;font-variation-settings:'wdth' 85, 'wght' 700;stroke-width:0.592034"
         x="120.01574"
         y="45.639423">UP</tspan></text>
    <path
       id="rect5-3-6"
       style="font-variation-settings:'wdth' 85, 'wght' 700;fill:#ff6600;fill-opacity:1;stroke-width:0.396875"
       d="m 123.20437,40.782525 v 4.64261 0.26458 0.91726 h 0.84698 v -0.91726 -1.93321 h 1.02629 l -1.02629,-1.62936 z m -6.31021,4.90719 v 0.91726 h 6.02237 v -0.91726 z" />
    <rect
       style="font-variation-settings:'wdth' 85, 'wght' 700;vector-effect:none;fill:#000000;fill-opacity:1;stroke-width:0.551812;stroke-linecap:butt;stroke-linejoin:miter;stroke-miterlimit:4;stroke-dasharray:none;stroke-dashoffset:0;stroke-opacity:1;-inkscape-stroke:none"
       id="rect7-4-0"
       width="0.86236179"
       height="0.12245397"
       x="120.36512"
       y="45.567074" />
    <path
       id="rect9-3-7"
       style="font-variation-settings:'wdth' 85, 'wght' 700;fill:#13eed6;fill-opacity:1;stroke:none;stroke-width:0.256765;stroke-linecap:round;stroke-linejoin:round;stroke-miterlimit:4;stroke-dasharray:none;stroke-dashoffset:0;stroke-opacity:1;paint-order:stroke fill markers"
       d="M 116.62233 44.332693 L 106.29015 44.33321 L 106.29015 44.520279 L 106.29015 44.707347 L 106.28239 44.707347 L 106.29015 44.712515 L 106.29015 45.064948 L 107.5371 45.064948 L 107.78515 45.064948 L 108.35255 45.064948 L 108.35255 44.709414 L 108.91686 45.064948 L 109.55971 45.470091 L 108.91686 45.875235 L 108.35255 46.230769 L 108.35255 45.875235 L 107.5371 45.875235 L 107.5371 45.874718 L 106.29015 45.874718 L 106.29015 46.227668 L 106.28239 46.232319 L 106.29015 46.232319 L 106.29015 46.419388 L 106.29015 46.606456 L 116.62233 46.606456 L 116.62233 46.232319 L 116.62233 45.874718 L 116.62233 45.064431 L 116.62233 44.706831 L 116.62233 44.491857 L 116.62233 44.332693 z M 110.42013 44.709414 L 110.98392 45.064948 L 111.62729 45.470091 L 110.98392 45.875235 L 110.42013 46.230769 L 110.42013 45.875235 L 109.60416 45.875235 L 109.60416 45.497997 L 109.60416 45.064948 L 110.42013 45.064948 L 110.42013 44.709414 z M 112.4877 44.709414 L 113.05149 45.064948 L 113.69435 45.470091 L 113.05149 45.875235 L 112.4877 46.230769 L 112.4877 45.875235 L 111.67173 45.875235 L 111.67173 45.497997 L 111.67173 45.064948 L 112.4877 45.064948 L 112.4877 44.709414 z M 114.55476 44.709414 L 115.11906 45.064948 L 115.76192 45.470091 L 115.11906 45.875235 L 114.55476 46.230769 L 114.55476 45.875235 L 113.73879 45.875235 L 113.73879 45.497997 L 113.73879 45.064948 L 114.55476 45.064948 L 114.55476 44.709414 z " />
    <path
       id="rect10-3"
       style="font-variation-settings:'wdth' 85, 'wght' 700;fill:#13eed6;fill-opacity:1;stroke:none;stroke-width:0.201;stroke-linecap:round;stroke-linejoin:round;stroke-miterlimit:4;stroke-dasharray:none;stroke-dashoffset:0;stroke-opacity:1;paint-order:stroke fill markers"
       d="M 100.54166 40.778905 L 100.54166 46.606973 L 106.29015 46.606973 L 106.29015 40.778905 L 100.54166 40.778905 z M 105.03906 41.236241 L 106.01574 42.017589 L 102.72447 46.132583 L 100.81658 44.550768 L 101.61498 43.588036 L 102.54309 44.357498 L 105.03906 41.236241 z " />
  </g>
</svg>
