<?xml version="1.0" encoding="UTF-8" standalone="no"?>
<!-- Created with Inkscape (http://www.inkscape.org/) -->

<svg
   width="1.7692802mm"
   height="1.76938mm"
   viewBox="0 0 1.7692802 1.76938"
   version="1.1"
   id="svg1"
   inkscape:version="1.3 (0e150ed6c4, 2023-07-21)"
   sodipodi:docname="search_icon.svg"
   inkscape:export-filename="search_icon.svg"
   inkscape:export-xdpi="96"
   inkscape:export-ydpi="96"
   xmlns:inkscape="http://www.inkscape.org/namespaces/inkscape"
   xmlns:sodipodi="http://sodipodi.sourceforge.net/DTD/sodipodi-0.dtd"
   xmlns="http://www.w3.org/2000/svg"
   xmlns:svg="http://www.w3.org/2000/svg">
  <sodipodi:namedview
     id="namedview1"
     pagecolor="#ffffff"
     bordercolor="#000000"
     borderopacity="0.25"
     inkscape:showpageshadow="2"
     inkscape:pageopacity="0.0"
     inkscape:pagecheckerboard="0"
     inkscape:deskcolor="#d1d1d1"
     inkscape:document-units="mm"
     inkscape:zoom="45.254834"
     inkscape:cx="3.8559417"
     inkscape:cy="4.8061164"
     inkscape:window-width="1920"
     inkscape:window-height="1017"
     inkscape:window-x="-8"
     inkscape:window-y="-8"
     inkscape:window-maximized="1"
     inkscape:current-layer="layer1" />
  <defs
     id="defs1" />
  <g
     inkscape:label="Слой 1"
     inkscape:groupmode="layer"
     id="layer1"
     transform="translate(-2.2092884,-0.8480102)">
    <path
       id="path1"
       style="font-variation-settings:'wdth' 85, 'wght' 700;fill:#000000;fill-opacity:1;stroke-width:1.09022;stroke-linecap:round;stroke-linejoin:bevel;paint-order:stroke fill markers"
       d="M 3.4788574,0.84801025 A 0.5,0.5 0 0 0 2.9786296,1.3477214 0.5,0.5 0 0 0 3.4788574,1.8479492 0.5,0.5 0 0 0 3.9785685,1.3477214 0.5,0.5 0 0 0 3.4788574,0.84801025 Z m 0,0.13280843 A 0.36716846,0.36716846 0 0 1 3.8457601,1.3477214 0.36716846,0.36716846 0 0 1 3.4788574,1.7151408 0.36716846,0.36716846 0 0 1 3.111438,1.3477214 0.36716846,0.36716846 0 0 1 3.4788574,0.98081868 Z" />
    <rect
       style="font-variation-settings:'wdth' 85, 'wght' 700;fill:#000000;fill-opacity:1;stroke-width:1.25;stroke-linecap:round;stroke-linejoin:bevel;paint-order:stroke fill markers"
       id="rect1"
       width="0.29392511"
       height="0.9722138"
       x="3.2660146"
       y="-0.83060479"
       transform="rotate(45)" />
    <rect
       style="font-variation-settings:'wdth' 85, 'wght' 700;fill:#000000;fill-opacity:1;stroke-width:1.25;stroke-linecap:round;stroke-linejoin:bevel;paint-order:stroke fill markers"
       id="rect2"
       width="0.21933609"
       height="0.24870583"
       x="3.3033092"
       y="-1.0773121"
       transform="rotate(45)" />
  </g>
</svg>
